<?xml version="1.0" encoding="UTF-8" standalone="no"?>
<!DOCTYPE svg PUBLIC "-//W3C//DTD SVG 1.1//EN" "http://www.w3.org/Graphics/SVG/1.1/DTD/svg11.dtd">
<svg xmlns="http://www.w3.org/2000/svg" version="1.1" viewBox="0.00 0.00 1035.00 241.00">
<path fill="#44b040" d="
  M 86.50 43.25
  A 0.80 0.79 -2.4 0 0 87.23 42.46
  L 87.23 21.24
  A 3.38 3.37 -90.0 0 1 90.60 17.86
  L 93.10 17.86
  A 3.18 3.18 0.0 0 1 96.28 21.04
  L 96.28 42.63
  A 0.81 0.81 0.0 0 0 97.09 43.44
  L 107.00 43.44
  A 1.77 1.77 0.0 0 1 108.77 45.21
  L 108.77 129.76
  A 1.10 1.10 0.0 0 1 107.47 130.84
  Q 102.69 129.96 97.57 129.71
  Q 95.92 129.63 93.53 131.80
  Q 87.64 137.16 82.20 142.61
  A 2.87 2.79 12.0 0 1 81.20 143.24
  Q 78.11 144.38 75.50 143.59
  A 2.15 2.15 0.0 0 1 73.97 141.53
  Q 73.93 105.05 74.09 45.75
  Q 74.09 43.35 76.50 43.40
  Q 82.87 43.56 86.50 43.25
  Z"
/>
<path fill="#c8c9cd" d="
  M 211.23 100.04
  A 0.44 0.44 0.0 0 1 210.55 99.68
  Q 210.30 91.30 207.22 84.44
  C 202.18 73.21 189.24 69.07 177.50 69.04
  Q 133.23 68.92 123.50 68.96
  Q 120.85 68.97 118.69 68.77
  A 0.63 0.62 3.1 0 1 118.13 68.15
  L 118.13 42.57
  A 1.10 1.09 -0.3 0 1 119.22 41.48
  Q 152.86 41.34 183.74 41.47
  C 196.86 41.53 212.14 43.82 223.28 50.60
  Q 238.56 59.91 246.15 77.14
  A 0.37 0.37 0.0 0 1 246.01 77.60
  L 211.23 100.04
  Z"
/>
<path fill="#c8c9cd" d="
  M 42.59 50.85
  C 44.72 50.85 46.76 51.71 46.81 54.11
  Q 46.96 60.53 47.02 75.41
  A 0.69 0.68 0.9 0 0 47.69 76.09
  L 59.24 76.35
  A 1.50 1.49 0.4 0 1 60.70 77.82
  Q 60.72 79.37 60.72 120.45
  Q 60.71 161.53 60.70 163.09
  A 1.50 1.49 -0.4 0 1 59.24 164.56
  L 47.69 164.82
  A 0.69 0.68 -0.9 0 0 47.02 165.50
  Q 46.96 180.38 46.81 186.80
  C 46.75 189.20 44.72 190.06 42.58 190.06
  C 40.45 190.06 38.42 189.19 38.36 186.80
  Q 38.21 180.38 38.15 165.50
  A 0.69 0.68 0.9 0 0 37.48 164.82
  L 25.93 164.56
  A 1.50 1.49 0.4 0 1 24.47 163.08
  Q 24.45 161.53 24.46 120.45
  Q 24.46 79.37 24.48 77.82
  A 1.50 1.49 -0.4 0 1 25.93 76.35
  L 37.48 76.09
  A 0.69 0.68 -0.9 0 0 38.15 75.41
  Q 38.21 60.53 38.37 54.11
  C 38.42 51.71 40.46 50.85 42.59 50.85
  Z"
/>
<path fill="#44b040" d="
  M 303.90 50.84
  L 304.26 51.23
  A 0.39 0.38 -42.3 0 1 304.23 51.77
  L 131.76 208.16
  A 1.09 1.09 0.0 0 1 130.22 208.08
  L 85.68 158.97
  A 1.50 1.49 47.9 0 1 85.78 156.86
  L 103.21 141.06
  A 0.73 0.73 0.0 0 1 104.16 141.03
  L 131.15 162.49
  A 1.61 1.61 0.0 0 0 132.92 162.66
  Q 134.42 161.88 135.78 161.00
  Q 167.20 140.78 230.45 99.03
  Q 238.25 93.88 245.97 88.67
  C 264.88 75.88 284.14 63.81 303.39 50.78
  A 0.39 0.38 51.5 0 1 303.90 50.84
  Z"
/>
<path fill="#c8c9cd" d="
  M 126.69 86.16
  L 160.94 86.16
  A 1.58 1.58 0.0 0 1 162.52 87.74
  L 162.52 119.88
  A 1.58 1.58 0.0 0 1 161.86 121.16
  L 127.61 145.74
  A 1.58 1.58 0.0 0 1 125.11 144.45
  L 125.11 87.74
  A 1.58 1.58 0.0 0 1 126.69 86.16
  Z"
/>
<path fill="#ffffff" d="
  M 463.70 164.02
  Q 456.04 170.84 446.82 170.25
  C 430.62 169.21 428.87 152.74 429.53 140.27
  C 430.11 129.16 434.48 119.56 446.22 116.94
  Q 454.82 115.02 462.68 118.99
  A 0.41 0.41 0.0 0 0 463.28 118.62
  L 463.28 94.13
  A 0.69 0.69 0.0 0 1 463.97 93.44
  L 476.10 93.44
  A 0.54 0.54 0.0 0 1 476.64 93.98
  L 476.64 168.28
  A 0.77 0.77 0.0 0 1 475.87 169.05
  L 466.30 169.05
  A 1.77 1.77 0.0 0 1 464.53 167.28
  L 464.53 164.39
  A 0.50 0.50 0.0 0 0 463.70 164.02
  Z
  M 462.51 128.62
  C 456.26 125.72 446.91 125.23 444.47 133.56
  C 442.85 139.10 441.01 157.60 449.51 159.53
  Q 456.90 161.20 462.68 154.95
  A 1.85 1.84 -23.7 0 0 463.17 153.70
  L 463.17 129.65
  A 1.15 1.13 12.8 0 0 462.51 128.62
  Z"
/>
<path fill="#ffffff" d="
  M 917.27 140.86
  L 935.69 168.36
  A 0.49 0.48 73.3 0 1 935.29 169.11
  L 921.59 169.11
  A 1.13 1.12 74.2 0 1 920.63 168.57
  Q 914.57 158.83 906.91 148.09
  Q 905.58 146.23 902.28 146.63
  A 0.60 0.59 86.1 0 0 901.77 147.22
  L 901.77 168.37
  A 0.78 0.77 -0.0 0 1 900.99 169.14
  L 888.98 169.14
  A 0.78 0.78 0.0 0 1 888.20 168.36
  L 888.20 94.51
  A 1.03 1.03 0.0 0 1 889.23 93.48
  L 900.92 93.48
  A 0.88 0.87 0.0 0 1 901.80 94.35
  L 901.80 137.12
  A 0.94 0.94 0.0 0 0 902.95 138.04
  Q 904.64 137.64 905.51 136.49
  Q 912.72 127.05 919.81 117.99
  A 1.87 1.83 -70.5 0 1 921.26 117.28
  L 934.64 117.28
  A 0.42 0.41 19.0 0 1 934.97 117.95
  L 917.30 140.17
  A 0.59 0.58 47.9 0 0 917.27 140.86
  Z"
/>
<path fill="#44b040" d="
  M 988.09 144.67
  A 0.32 0.31 -31.3 0 0 987.97 145.14
  Q 996.12 156.77 1005.50 165.75
  Q 1006.35 166.56 1006.11 167.93
  A 1.70 1.70 0.0 0 1 1004.40 169.34
  Q 995.03 169.13 987.68 169.36
  A 1.46 1.44 71.1 0 1 986.47 168.76
  L 971.41 147.76
  A 1.76 1.75 -17.3 0 0 970.03 147.04
  L 962.79 146.87
  A 0.66 0.65 0.4 0 0 962.12 147.52
  L 962.12 168.58
  A 0.66 0.66 0.0 0 1 961.46 169.24
  L 946.09 169.24
  A 0.79 0.79 0.0 0 1 945.30 168.43
  L 946.94 96.40
  A 1.03 1.03 0.0 0 1 947.98 95.39
  Q 980.42 95.44 980.94 95.42
  Q 984.47 95.22 989.51 96.03
  C 998.61 97.49 1005.14 102.00 1006.70 111.58
  Q 1008.03 119.80 1005.52 127.72
  C 1002.68 136.65 995.86 140.76 988.09 144.67
  Z
  M 962.47 132.77
  A 0.47 0.47 0.0 0 0 962.92 133.25
  Q 972.17 133.56 976.98 133.32
  Q 980.68 133.14 985.38 130.40
  C 989.57 127.95 990.82 123.27 990.63 118.54
  C 990.36 111.92 985.62 108.95 979.49 108.92
  Q 966.67 108.87 963.71 108.71
  A 0.68 0.67 -87.5 0 0 963.00 109.37
  L 962.47 132.77
  Z"
/>
<path fill="#ffffff" d="
  M 320.83 95.63
  Q 345.93 95.63 349.52 95.70
  A 0.58 0.58 0.0 0 1 350.09 96.28
  L 350.08 105.69
  A 0.93 0.93 0.0 0 1 349.15 106.62
  L 328.59 106.61
  A 0.77 0.77 0.0 0 0 327.82 107.38
  L 327.80 168.45
  A 0.53 0.52 89.3 0 1 327.29 168.98
  Q 324.09 169.08 320.84 169.08
  Q 317.59 169.08 314.38 168.98
  A 0.53 0.52 -89.3 0 1 313.87 168.45
  L 313.83 107.38
  A 0.77 0.77 0.0 0 0 313.06 106.61
  L 292.50 106.63
  A 0.93 0.93 0.0 0 1 291.57 105.70
  L 291.57 96.29
  A 0.58 0.58 0.0 0 1 292.13 95.71
  Q 295.73 95.63 320.83 95.63
  Z"
/>
<path fill="#ffffff" d="
  M 539.58 96.17
  A 0.64 0.64 0.0 0 1 540.22 95.53
  L 567.65 95.53
  A 31.33 30.59 -0.0 0 1 598.98 126.12
  L 598.98 138.42
  A 31.33 30.59 -0.0 0 1 567.65 169.01
  L 540.22 169.01
  A 0.64 0.64 0.0 0 1 539.58 168.37
  L 539.58 96.17
  Z
  M 553.50 107.42
  L 553.42 157.28
  A 0.86 0.86 0.0 0 0 554.28 158.14
  L 565.84 158.16
  A 20.00 18.57 -89.9 0 0 584.45 138.20
  L 584.47 126.62
  A 20.00 18.57 -89.9 0 0 565.94 106.58
  L 554.37 106.56
  A 0.86 0.86 0.0 0 0 553.50 107.42
  Z"
/>
<path fill="#ffffff" d="
  M 729.30 169.19
  Q 726.04 169.19 722.83 169.09
  A 0.53 0.52 -89.3 0 1 722.32 168.56
  L 722.32 107.40
  A 0.77 0.77 0.0 0 0 721.55 106.63
  L 700.96 106.63
  A 0.93 0.93 0.0 0 1 700.03 105.70
  L 700.03 96.28
  A 0.58 0.58 0.0 0 1 700.60 95.70
  Q 704.20 95.62 729.33 95.64
  Q 754.47 95.65 758.07 95.73
  A 0.58 0.58 0.0 0 1 758.63 96.31
  L 758.63 105.73
  A 0.93 0.93 0.0 0 1 757.69 106.66
  L 737.10 106.64
  A 0.77 0.77 0.0 0 0 736.33 107.41
  L 736.27 168.57
  A 0.53 0.52 89.3 0 1 735.76 169.10
  Q 732.55 169.19 729.30 169.19
  Z"
/>
<path fill="#a0a1a5" d="
  M 249.38 114.19
  A 0.21 0.21 0.0 0 1 249.74 114.36
  Q 247.35 144.28 222.46 160.62
  A 1.05 1.05 0.0 0 0 222.21 162.13
  L 255.68 205.68
  A 0.82 0.82 0.0 0 1 255.03 207.00
  L 209.00 207.00
  A 1.38 1.38 0.0 0 1 207.99 206.56
  L 182.19 178.11
  A 0.83 0.80 -54.2 0 1 182.06 177.23
  Q 182.49 176.27 184.72 174.21
  Q 221.07 140.76 249.38 114.19
  Z"
/>
<path fill="#ffffff" d="
  M 764.42 124.27
  A 0.20 0.20 0.0 0 0 764.78 124.33
  C 768.42 119.45 774.67 115.39 781.08 116.24
  A 0.53 0.52 3.7 0 1 781.54 116.76
  L 781.54 127.71
  A 0.67 0.67 0.0 0 1 780.82 128.38
  Q 773.48 127.87 766.32 132.91
  A 2.34 2.31 72.8 0 0 765.33 134.82
  L 765.33 168.69
  A 0.45 0.44 -90.0 0 1 764.89 169.14
  L 752.84 169.14
  A 1.09 1.08 -90.0 0 1 751.76 168.05
  L 751.76 118.04
  A 0.71 0.71 0.0 0 1 752.47 117.33
  L 761.68 117.33
  A 0.84 0.83 -8.4 0 1 762.48 117.92
  L 764.42 124.27
  Z"
/>
<path fill="#ffffff" d="
  M 356.04 124.31
  A 0.20 0.20 0.0 0 0 356.39 124.37
  C 360.04 119.51 366.29 115.48 372.68 116.35
  A 0.53 0.52 3.9 0 1 373.13 116.87
  L 373.10 127.79
  A 0.67 0.67 0.0 0 1 372.38 128.46
  Q 365.06 127.93 357.90 132.93
  A 2.33 2.30 73.0 0 0 356.91 134.83
  L 356.80 168.61
  A 0.45 0.44 -89.8 0 1 356.36 169.06
  L 344.34 169.02
  A 1.09 1.08 -89.8 0 1 343.27 167.93
  L 343.43 118.05
  A 0.71 0.71 0.0 0 1 344.14 117.35
  L 353.33 117.38
  A 0.84 0.83 -8.3 0 1 354.12 117.97
  L 356.04 124.31
  Z"
/>
<path fill="#ffffff" d="
  M 409.06 163.26
  A 0.39 0.39 0.0 0 0 408.40 163.12
  Q 403.39 168.34 396.37 169.91
  C 387.93 171.80 378.92 167.81 377.59 158.50
  Q 375.50 143.91 389.77 139.52
  C 395.40 137.80 401.79 137.80 407.29 137.64
  A 0.71 0.71 0.0 0 0 407.98 136.95
  Q 408.04 134.41 407.80 132.36
  C 406.74 123.10 389.50 127.47 384.80 129.28
  A 1.03 1.03 0.0 0 1 383.45 128.62
  L 381.18 121.30
  A 0.98 0.97 -19.9 0 1 381.74 120.11
  C 392.22 115.70 413.84 112.22 419.74 125.27
  Q 421.41 128.94 421.39 140.22
  Q 421.34 167.23 421.39 168.46
  A 0.47 0.47 0.0 0 1 420.92 168.95
  L 411.51 168.99
  A 0.93 0.92 81.2 0 1 410.63 168.34
  L 409.06 163.26
  Z
  M 407.39 146.12
  C 401.47 145.84 393.19 145.50 390.91 151.86
  C 389.66 155.35 391.42 159.20 395.51 159.91
  C 400.26 160.74 404.40 158.52 407.73 155.16
  A 1.38 1.36 67.7 0 0 408.13 154.19
  L 408.13 146.90
  A 0.78 0.77 -88.9 0 0 407.39 146.12
  Z"
/>
<path fill="#ffffff" d="
  M 529.77 147.34
  L 499.31 147.34
  A 0.60 0.60 0.0 0 0 498.71 147.99
  Q 499.12 152.23 500.58 155.14
  C 503.16 160.28 511.94 160.60 516.79 159.79
  Q 521.04 159.07 524.69 157.68
  A 1.22 1.22 0.0 0 1 526.29 158.47
  L 528.38 165.34
  A 1.16 1.15 -19.2 0 1 527.69 166.76
  Q 514.45 171.80 503.02 169.77
  C 487.80 167.08 484.29 153.87 485.12 140.04
  C 485.79 128.63 491.43 118.46 503.40 116.62
  C 509.33 115.70 515.82 115.96 521.18 119.03
  C 526.23 121.93 529.47 129.26 530.09 134.74
  Q 530.69 140.08 530.29 146.85
  A 0.52 0.52 0.0 0 1 529.77 147.34
  Z
  M 499.64 138.37
  L 516.96 138.31
  A 0.69 0.69 0.0 0 0 517.65 137.62
  L 517.64 135.94
  A 9.55 8.43 89.8 0 0 509.18 126.42
  L 507.34 126.42
  A 9.55 8.43 89.8 0 0 498.94 136.00
  L 498.95 137.68
  A 0.69 0.69 0.0 0 0 499.64 138.37
  Z"
/>
<path fill="#ffffff" d="
  M 636.01 163.30
  A 0.39 0.39 0.0 0 0 635.35 163.15
  Q 630.34 168.35 623.32 169.90
  C 614.87 171.77 605.88 167.75 604.58 158.44
  Q 602.54 143.86 616.81 139.52
  C 622.44 137.81 628.83 137.83 634.32 137.69
  A 0.71 0.71 0.0 0 0 635.01 137.00
  Q 635.08 134.46 634.84 132.41
  C 633.81 123.15 616.57 127.48 611.87 129.26
  A 1.03 1.03 0.0 0 1 610.53 128.61
  L 608.27 121.29
  A 0.98 0.97 -19.8 0 1 608.84 120.10
  C 619.33 115.72 640.93 112.30 646.80 125.36
  Q 648.46 129.03 648.41 140.30
  Q 648.28 167.29 648.32 168.52
  A 0.47 0.47 0.0 0 1 647.85 169.01
  L 638.45 169.03
  A 0.93 0.92 81.4 0 1 637.57 168.37
  L 636.01 163.30
  Z
  M 634.36 146.01
  C 628.40 145.73 620.08 145.39 617.78 151.78
  C 616.53 155.29 618.29 159.16 622.41 159.88
  C 627.18 160.71 631.35 158.48 634.70 155.10
  A 1.39 1.37 67.7 0 0 635.10 154.13
  L 635.10 146.80
  A 0.79 0.78 -88.8 0 0 634.36 146.01
  Z"
/>
<path fill="#ffffff" d="
  M 817.26 163.36
  A 0.39 0.39 0.0 0 0 816.60 163.21
  Q 811.57 168.41 804.54 169.95
  C 796.09 171.80 787.10 167.77 785.81 158.45
  Q 783.79 143.85 798.08 139.53
  C 803.72 137.83 810.11 137.86 815.61 137.73
  A 0.71 0.71 0.0 0 0 816.30 137.04
  Q 816.37 134.50 816.14 132.45
  C 815.12 123.18 797.86 127.48 793.15 129.26
  A 1.03 1.03 0.0 0 1 791.81 128.60
  L 789.57 121.27
  A 0.98 0.97 -19.7 0 1 790.14 120.08
  C 800.64 115.72 822.27 112.33 828.12 125.41
  Q 829.77 129.09 829.70 140.37
  Q 829.53 167.38 829.57 168.61
  A 0.47 0.47 0.0 0 1 829.10 169.10
  L 819.69 169.10
  A 0.93 0.92 81.4 0 1 818.81 168.44
  L 817.26 163.36
  Z
  M 815.57 146.10
  C 809.64 145.84 801.34 145.53 799.08 151.91
  C 797.84 155.41 799.62 159.26 803.72 159.96
  C 808.48 160.77 812.62 158.53 815.94 155.15
  A 1.38 1.37 67.5 0 0 816.34 154.18
  L 816.31 146.88
  A 0.78 0.77 -89.1 0 0 815.57 146.10
  Z"
/>
<path fill="#ffffff" d="
  M 875.39 128.45
  Q 868.49 125.97 861.04 127.00
  C 855.99 127.69 853.39 130.55 852.26 135.64
  Q 850.84 142.03 851.89 149.03
  C 852.79 154.95 854.90 158.40 861.12 159.53
  C 866.10 160.44 870.49 159.73 874.96 157.82
  A 1.80 1.80 0.0 0 1 877.39 158.96
  L 879.20 164.87
  A 2.12 2.11 -18.8 0 1 877.92 167.46
  C 865.03 172.28 844.02 172.92 839.37 155.90
  Q 836.65 145.97 838.19 135.64
  C 841.19 115.60 862.26 112.79 878.13 118.87
  A 1.40 1.40 0.0 0 1 878.97 120.56
  L 876.99 127.62
  A 1.23 1.23 0.0 0 1 875.39 128.45
  Z"
/>
<path fill="#ffffff" d="
  M 672.94 169.74
  Q 671.10 168.55 670.75 167.52
  Q 669.81 164.75 653.18 119.33
  Q 652.89 118.54 652.86 118.11
  A 0.79 0.79 0.0 0 1 653.65 117.28
  L 665.58 117.28
  A 1.61 1.60 -8.2 0 1 667.12 118.42
  L 678.62 156.11
  A 0.35 0.35 0.0 0 0 679.29 156.10
  L 690.04 117.81
  A 0.75 0.75 0.0 0 1 690.76 117.26
  L 702.82 117.26
  A 0.83 0.83 0.0 0 1 703.60 118.36
  Q 694.24 145.77 685.58 172.80
  Q 685.40 173.34 683.34 177.81
  C 678.65 187.97 667.78 190.39 657.65 188.60
  A 1.86 1.85 -85.0 0 1 656.12 186.77
  L 656.12 179.75
  A 1.04 1.04 0.0 0 1 657.59 178.80
  Q 658.99 179.43 662.25 179.31
  Q 671.08 178.98 673.25 170.52
  A 0.72 0.71 23.6 0 0 672.94 169.74
  Z"
/>
<path fill="#44b040" d="
  M 85.93 174.35
  Q 89.38 178.13 91.45 180.59
  A 0.73 0.72 -38.1 0 1 91.32 181.64
  Q 87.64 184.27 34.76 221.77
  Q 33.72 222.51 33.48 222.26
  Q 33.25 222.00 34.08 221.02
  Q 76.20 171.74 79.15 168.32
  A 0.73 0.72 -46.7 0 1 80.20 168.28
  Q 82.47 170.56 85.93 174.35
  Z"
/>
</svg>
